# xmcd
# Track frame offsets:
# 150
# 14183
# 26015
# 35755
# 46703
# 57320
# 70565
# 88948
# 102228
# 113868
# 124438
# 135263
# 148678
# 159450
# 171353
# 184675
#
# Disc length: 2599 seconds
# Revision: 0
# Processed by: cddbd v1.4b42PL1 Copyright (c) Steve Scherf et al.
# Submitted via: VisiTrax 2.7.1.94 - For more info visit www.synapsa.com
#
DISCID=e30a2510
DTITLE=Wilson Pickett - 16 Original Hits
DYEAR=1900
DGENRE=
TTITLE0=Mustang Sally
TTITLE1=In the midnight hour
TTITLE2=Don't fight it
TTITLE3=Land of 1000 Dances
TTITLE4=She's looking good
TTITLE5=634-5789
TTITLE6=Hey Jude
TTITLE7=Something you got
TTITLE8=Funky broadway
TTITLE9=Stagger lee
TTITLE10=I'm a midnight mover
TTITLE11=Hey Joe
TTITLE12=Don't knock my love
TTITLE13=Mama told me not to come
TTITLE14=Sugar sugar
TTITLE15=Everybody needs somebody to love
EXTD=
EXTT0=
EXTT1=
EXTT2=
EXTT3=
EXTT4=
EXTT5=
EXTT6=
EXTT7=
EXTT8=
EXTT9=
EXTT10=
EXTT11=
EXTT12=
EXTT13=
EXTT14=
EXTT15=
PLAYORDER=
